<svg width="459" height="120" viewBox="0 0 459 120" fill="none" xmlns="http://www.w3.org/2000/svg">
<g filter="url(#filter0_d_289_797)">
<path d="M25.2817 59.0351V50.2954L60.2406 34.9015V44.9572L36.3056 54.5659L36.6284 54.0445V55.286L36.3056 54.7646L60.2406 64.3733V74.4289L25.2817 59.0351ZM99.8822 21.7671L83.4952 82.6473H74.383L90.77 21.7671H99.8822ZM129.152 90.0959C125.725 90.0959 122.787 89.6241 120.337 88.6807C117.904 87.7537 115.967 86.4874 114.527 84.8818C113.087 83.2763 112.152 81.472 111.722 79.4692L121.504 78.1533C121.802 78.9147 122.274 79.6264 122.92 80.2885C123.565 80.9506 124.418 81.4803 125.477 81.8776C126.553 82.2914 127.86 82.4983 129.4 82.4983C131.701 82.4983 133.596 81.9355 135.086 80.8099C136.592 79.7009 137.345 77.8388 137.345 75.2235V68.2466H136.898C136.435 69.3059 135.739 70.3074 134.813 71.2509C133.886 72.1943 132.694 72.964 131.237 73.5599C129.781 74.1558 128.043 74.4538 126.023 74.4538C123.16 74.4538 120.553 73.7917 118.202 72.4675C115.868 71.1267 114.006 69.0825 112.616 66.3348C111.242 63.5705 110.555 60.0779 110.555 55.857C110.555 51.5368 111.258 47.9284 112.665 45.0317C114.072 42.135 115.943 39.9666 118.277 38.5265C120.627 37.0865 123.201 36.3664 125.998 36.3664C128.134 36.3664 129.921 36.7306 131.361 37.4589C132.801 38.1707 133.96 39.0645 134.837 40.1404C135.731 41.1998 136.418 42.2426 136.898 43.2688H137.295V36.863H147.798V75.3724C147.798 78.6167 147.003 81.3313 145.414 83.5163C143.825 85.7012 141.624 87.3399 138.81 88.4324C136.013 89.5414 132.793 90.0959 129.152 90.0959ZM129.375 66.5086C131.08 66.5086 132.52 66.0865 133.695 65.2423C134.887 64.3816 135.797 63.1567 136.426 61.5676C137.072 59.962 137.395 58.042 137.395 55.8074C137.395 53.5728 137.08 51.6361 136.451 49.9974C135.822 48.3422 134.912 47.0594 133.72 46.149C132.528 45.2386 131.08 44.7834 129.375 44.7834C127.637 44.7834 126.172 45.2551 124.98 46.1986C123.789 47.1256 122.886 48.4167 122.274 50.0719C121.662 51.7272 121.355 53.639 121.355 55.8074C121.355 58.0088 121.662 59.9124 122.274 61.518C122.903 63.107 123.805 64.3402 124.98 65.2175C126.172 66.0782 127.637 66.5086 129.375 66.5086ZM174.082 75.72C171.648 75.72 169.48 75.2979 167.577 74.4538C165.673 73.593 164.167 72.3268 163.058 70.655C161.965 68.9666 161.419 66.8644 161.419 64.3485C161.419 62.2297 161.808 60.4503 162.586 59.0103C163.364 57.5702 164.423 56.4115 165.764 55.5342C167.105 54.657 168.628 53.9949 170.333 53.5479C172.054 53.101 173.858 52.7865 175.745 52.6045C177.963 52.3727 179.751 52.1575 181.108 51.9589C182.466 51.7437 183.45 51.4292 184.063 51.0154C184.675 50.6016 184.982 49.9892 184.982 49.1781V49.0291C184.982 47.4566 184.485 46.24 183.492 45.3793C182.515 44.5186 181.125 44.0882 179.321 44.0882C177.417 44.0882 175.902 44.5103 174.777 45.3545C173.651 46.1821 172.906 47.2249 172.542 48.4829L162.76 47.6884C163.256 45.371 164.233 43.3682 165.69 41.6798C167.146 39.9749 169.025 38.6672 171.326 37.7569C173.643 36.8299 176.325 36.3664 179.37 36.3664C181.489 36.3664 183.517 36.6147 185.453 37.1113C187.406 37.6079 189.136 38.3776 190.642 39.4204C192.165 40.4632 193.365 41.8039 194.243 43.4426C195.12 45.0648 195.559 47.0097 195.559 49.2774V75H185.528V69.7115H185.23C184.617 70.9033 183.798 71.9543 182.772 72.8647C181.746 73.7586 180.512 74.462 179.072 74.9752C177.632 75.4717 175.969 75.72 174.082 75.72ZM177.111 68.4204C178.667 68.4204 180.041 68.1142 181.232 67.5017C182.424 66.8727 183.359 66.0285 184.038 64.9692C184.717 63.9098 185.056 62.7098 185.056 61.369V57.3219C184.725 57.5371 184.27 57.7357 183.69 57.9178C183.128 58.0833 182.49 58.2406 181.779 58.3896C181.067 58.522 180.355 58.6461 179.643 58.762C178.932 58.8613 178.286 58.9523 177.707 59.0351C176.465 59.2172 175.381 59.5069 174.454 59.9041C173.527 60.3014 172.807 60.8393 172.294 61.518C171.781 62.1801 171.524 63.0077 171.524 64.0009C171.524 65.4409 172.046 66.5417 173.089 67.3031C174.148 68.0479 175.489 68.4204 177.111 68.4204ZM221.333 24.1507V75H210.756V24.1507H221.333ZM247.375 24.1507V75H236.798V24.1507H247.375ZM280.22 75.7449C276.297 75.7449 272.92 74.9503 270.09 73.3613C267.276 71.7557 265.107 69.488 263.584 66.5582C262.062 63.6119 261.3 60.1276 261.3 56.1053C261.3 52.1824 262.062 48.7394 263.584 45.7765C265.107 42.8136 267.251 40.5046 270.015 38.8493C272.796 37.1941 276.057 36.3664 279.798 36.3664C282.314 36.3664 284.656 36.772 286.824 37.5831C289.009 38.3776 290.913 39.5776 292.535 41.1832C294.173 42.7888 295.448 44.8082 296.358 47.2414C297.269 49.6581 297.724 52.4886 297.724 55.7329V58.6378H265.521V52.083H287.768C287.768 50.5602 287.437 49.2112 286.775 48.036C286.112 46.8607 285.194 45.9421 284.019 45.28C282.86 44.6013 281.511 44.262 279.971 44.262C278.366 44.262 276.942 44.6344 275.701 45.3793C274.476 46.1076 273.516 47.0925 272.821 48.3339C272.126 49.5588 271.77 50.9244 271.753 52.4307V58.6627C271.753 60.5497 272.101 62.1801 272.796 63.5539C273.508 64.9278 274.509 65.9872 275.8 66.732C277.091 67.4769 278.622 67.8493 280.394 67.8493C281.569 67.8493 282.645 67.6838 283.621 67.3527C284.598 67.0217 285.434 66.5251 286.129 65.863C286.824 65.2009 287.354 64.3898 287.718 63.4298L297.501 64.0753C297.004 66.4258 295.986 68.4783 294.447 70.2329C292.924 71.9709 290.954 73.3282 288.537 74.3048C286.137 75.2648 283.365 75.7449 280.22 75.7449ZM311.618 75V36.863H321.872V43.5171H322.27C322.965 41.1501 324.132 39.3624 325.771 38.1541C327.409 36.9292 329.296 36.3168 331.432 36.3168C331.961 36.3168 332.532 36.3499 333.145 36.4161C333.757 36.4823 334.295 36.5733 334.759 36.6892V46.0745C334.262 45.9255 333.575 45.7931 332.698 45.6772C331.821 45.5614 331.018 45.5034 330.289 45.5034C328.733 45.5034 327.343 45.8428 326.118 46.5214C324.91 47.1835 323.95 48.1104 323.238 49.3022C322.543 50.494 322.195 51.8679 322.195 53.4238V75H311.618ZM354.91 89.3014C353.569 89.3014 352.311 89.1938 351.136 88.9786C349.977 88.78 349.017 88.5234 348.255 88.2089L350.639 80.3134C351.88 80.6941 352.998 80.901 353.991 80.9341C355.001 80.9672 355.87 80.7354 356.598 80.2389C357.343 79.7423 357.947 78.8981 358.41 77.7063L359.031 76.0925L345.351 36.863H356.474L364.369 64.8699H364.767L372.737 36.863H383.934L369.112 79.1216C368.4 81.1741 367.432 82.9618 366.207 84.4846C364.998 86.024 363.467 87.2075 361.613 88.0351C359.759 88.8793 357.525 89.3014 354.91 89.3014ZM433.359 59.0351L398.4 74.4289V64.3733L422.335 54.7646L422.012 55.286V54.0445L422.335 54.5659L398.4 44.9572V34.9015L433.359 50.2954V59.0351Z" fill="white"/>
</g>
<defs>
<filter id="filter0_d_289_797" x="0.181738" y="0.667089" width="458.277" height="118.529" filterUnits="userSpaceOnUse" color-interpolation-filters="sRGB">
<feFlood flood-opacity="0" result="BackgroundImageFix"/>
<feColorMatrix in="SourceAlpha" type="matrix" values="0 0 0 0 0 0 0 0 0 0 0 0 0 0 0 0 0 0 127 0" result="hardAlpha"/>
<feOffset dy="4"/>
<feGaussianBlur stdDeviation="12.55"/>
<feComposite in2="hardAlpha" operator="out"/>
<feColorMatrix type="matrix" values="0 0 0 0 1 0 0 0 0 1 0 0 0 0 1 0 0 0 0.5 0"/>
<feBlend mode="normal" in2="BackgroundImageFix" result="effect1_dropShadow_289_797"/>
<feBlend mode="normal" in="SourceGraphic" in2="effect1_dropShadow_289_797" result="shape"/>
</filter>
</defs>
</svg>
