<svg width="436" height="112" viewBox="0 0 436 112" fill="none" xmlns="http://www.w3.org/2000/svg">
<g filter="url(#filter0_d_289_855)">
<path d="M25.2817 59.0351V50.2954L60.2406 34.9015V44.9572L36.3056 54.5659L36.6284 54.0445V55.286L36.3056 54.7646L60.2406 64.3733V74.4289L25.2817 59.0351ZM92.8904 21.7671L76.5034 82.6473H67.3913L83.7782 21.7671H92.8904ZM118.272 36.863V44.8082H95.305V36.863H118.272ZM100.519 27.726H111.096V63.2808C111.096 64.2574 111.245 65.0188 111.543 65.5651C111.841 66.0947 112.255 66.4672 112.784 66.6824C113.331 66.8975 113.96 67.0051 114.671 67.0051C115.168 67.0051 115.665 66.9638 116.161 66.881C116.658 66.7817 117.038 66.7072 117.303 66.6575L118.967 74.5283C118.437 74.6938 117.692 74.8841 116.732 75.0993C115.772 75.3311 114.605 75.4717 113.231 75.5214C110.682 75.6207 108.448 75.2814 106.528 74.5034C104.624 73.7255 103.143 72.5171 102.083 70.8784C101.024 69.2397 100.502 67.1707 100.519 64.6712V27.726ZM125.162 75V36.863H135.739V75H125.162ZM130.475 31.9469C128.902 31.9469 127.553 31.4255 126.428 30.3827C125.319 29.3233 124.764 28.0571 124.764 26.5839C124.764 25.1273 125.319 23.8776 126.428 22.8348C127.553 21.7754 128.902 21.2457 130.475 21.2457C132.047 21.2457 133.388 21.7754 134.497 22.8348C135.623 23.8776 136.186 25.1273 136.186 26.5839C136.186 28.0571 135.623 29.3233 134.497 30.3827C133.388 31.4255 132.047 31.9469 130.475 31.9469ZM144.211 75V36.863H154.292V43.5916H154.739C155.533 41.357 156.858 39.5942 158.711 38.3031C160.565 37.012 162.783 36.3664 165.366 36.3664C167.981 36.3664 170.207 37.0203 172.045 38.3279C173.882 39.619 175.107 41.3736 175.719 43.5916H176.116C176.894 41.4067 178.301 39.6604 180.337 38.3527C182.39 37.0285 184.815 36.3664 187.612 36.3664C191.171 36.3664 194.059 37.5003 196.277 39.768C198.512 42.0191 199.629 45.2138 199.629 49.3519V75H189.077V51.4375C189.077 49.3188 188.514 47.7297 187.389 46.6704C186.263 45.611 184.856 45.0813 183.168 45.0813C181.248 45.0813 179.75 45.6938 178.674 46.9187C177.598 48.127 177.06 49.7243 177.06 51.7106V75H166.806V51.214C166.806 49.3436 166.268 47.8539 165.192 46.7449C164.132 45.6358 162.734 45.0813 160.996 45.0813C159.82 45.0813 158.761 45.3793 157.818 45.9752C156.891 46.5545 156.154 47.3739 155.608 48.4332C155.062 49.476 154.789 50.7009 154.789 52.1079V75H144.211ZM225.364 75.7449C221.441 75.7449 218.065 74.9503 215.234 73.3613C212.42 71.7557 210.252 69.488 208.729 66.5582C207.206 63.6119 206.445 60.1276 206.445 56.1053C206.445 52.1824 207.206 48.7394 208.729 45.7765C210.252 42.8136 212.395 40.5046 215.16 38.8493C217.94 37.1941 221.201 36.3664 224.942 36.3664C227.458 36.3664 229.8 36.772 231.969 37.5831C234.154 38.3776 236.057 39.5776 237.679 41.1832C239.318 42.7888 240.593 44.8082 241.503 47.2414C242.413 49.6581 242.869 52.4886 242.869 55.7329V58.6378H210.666V52.083H232.912C232.912 50.5602 232.581 49.2112 231.919 48.036C231.257 46.8607 230.338 45.9421 229.163 45.28C228.004 44.6013 226.655 44.262 225.116 44.262C223.51 44.262 222.087 44.6344 220.845 45.3793C219.621 46.1076 218.661 47.0925 217.965 48.3339C217.27 49.5588 216.914 50.9244 216.898 52.4307V58.6627C216.898 60.5497 217.245 62.1801 217.94 63.5539C218.652 64.9278 219.654 65.9872 220.945 66.732C222.236 67.4769 223.767 67.8493 225.538 67.8493C226.713 67.8493 227.789 67.6838 228.766 67.3527C229.742 67.0217 230.578 66.5251 231.274 65.863C231.969 65.2009 232.498 64.3898 232.863 63.4298L242.645 64.0753C242.149 66.4258 241.131 68.4783 239.591 70.2329C238.068 71.9709 236.099 73.3282 233.682 74.3048C231.282 75.2648 228.509 75.7449 225.364 75.7449ZM260.348 24.1507V75H249.771V24.1507H260.348ZM268.821 75V36.863H279.398V75H268.821ZM274.134 31.9469C272.562 31.9469 271.213 31.4255 270.087 30.3827C268.978 29.3233 268.424 28.0571 268.424 26.5839C268.424 25.1273 268.978 23.8776 270.087 22.8348C271.213 21.7754 272.562 21.2457 274.134 21.2457C275.707 21.2457 277.047 21.7754 278.156 22.8348C279.282 23.8776 279.845 25.1273 279.845 26.5839C279.845 28.0571 279.282 29.3233 278.156 30.3827C277.047 31.4255 275.707 31.9469 274.134 31.9469ZM298.448 52.9521V75H287.871V36.863H297.951V43.5916H298.398C299.242 41.3736 300.658 39.619 302.644 38.3279C304.63 37.0203 307.039 36.3664 309.869 36.3664C312.517 36.3664 314.826 36.9458 316.796 38.1045C318.766 39.2631 320.297 40.9184 321.39 43.0702C322.482 45.2055 323.028 47.7546 323.028 50.7175V75H312.451V52.6045C312.468 50.2706 311.872 48.4498 310.664 47.1421C309.455 45.8179 307.792 45.1558 305.673 45.1558C304.249 45.1558 302.991 45.462 301.899 46.0745C300.823 46.6869 299.979 47.5808 299.366 48.756C298.771 49.9147 298.464 51.3134 298.448 52.9521ZM348.745 75.7449C344.822 75.7449 341.445 74.9503 338.614 73.3613C335.801 71.7557 333.632 69.488 332.109 66.5582C330.587 63.6119 329.825 60.1276 329.825 56.1053C329.825 52.1824 330.587 48.7394 332.109 45.7765C333.632 42.8136 335.776 40.5046 338.54 38.8493C341.321 37.1941 344.582 36.3664 348.323 36.3664C350.839 36.3664 353.181 36.772 355.349 37.5831C357.534 38.3776 359.438 39.5776 361.06 41.1832C362.698 42.7888 363.973 44.8082 364.883 47.2414C365.794 49.6581 366.249 52.4886 366.249 55.7329V58.6378H334.046V52.083H356.293C356.293 50.5602 355.962 49.2112 355.299 48.036C354.637 46.8607 353.719 45.9421 352.543 45.28C351.385 44.6013 350.036 44.262 348.496 44.262C346.891 44.262 345.467 44.6344 344.226 45.3793C343.001 46.1076 342.041 47.0925 341.346 48.3339C340.65 49.5588 340.295 50.9244 340.278 52.4307V58.6627C340.278 60.5497 340.626 62.1801 341.321 63.5539C342.033 64.9278 343.034 65.9872 344.325 66.732C345.616 67.4769 347.147 67.8493 348.918 67.8493C350.094 67.8493 351.17 67.6838 352.146 67.3527C353.123 67.0217 353.959 66.5251 354.654 65.863C355.349 65.2009 355.879 64.3898 356.243 63.4298L366.025 64.0753C365.529 66.4258 364.511 68.4783 362.971 70.2329C361.449 71.9709 359.479 73.3282 357.062 74.3048C354.662 75.2648 351.89 75.7449 348.745 75.7449ZM410.171 59.0351L375.212 74.4289V64.3733L399.147 54.7646L398.824 55.286V54.0445L399.147 54.5659L375.212 44.9572V34.9015L410.171 50.2954V59.0351Z" fill="white"/>
</g>
<defs>
<filter id="filter0_d_289_855" x="0.181738" y="0.145605" width="435.089" height="111.602" filterUnits="userSpaceOnUse" color-interpolation-filters="sRGB">
<feFlood flood-opacity="0" result="BackgroundImageFix"/>
<feColorMatrix in="SourceAlpha" type="matrix" values="0 0 0 0 0 0 0 0 0 0 0 0 0 0 0 0 0 0 127 0" result="hardAlpha"/>
<feOffset dy="4"/>
<feGaussianBlur stdDeviation="12.55"/>
<feComposite in2="hardAlpha" operator="out"/>
<feColorMatrix type="matrix" values="0 0 0 0 1 0 0 0 0 1 0 0 0 0 1 0 0 0 0.5 0"/>
<feBlend mode="normal" in2="BackgroundImageFix" result="effect1_dropShadow_289_855"/>
<feBlend mode="normal" in="SourceGraphic" in2="effect1_dropShadow_289_855" result="shape"/>
</filter>
</defs>
</svg>
